<mxfile host="Electron" modified="2024-06-04T05:17:40.639Z" agent="Mozilla/5.0 (Windows NT 10.0; Win64; x64) AppleWebKit/537.36 (KHTML, like Gecko) draw.io/24.4.13 Chrome/124.0.6367.207 Electron/30.0.6 Safari/537.36" etag="Q94ko2PrVYXvJCyPWcMz" version="24.4.13" type="device">
  <diagram name="Page-1" id="8t9VR4DYHycpJsPRwd7p">
    <mxGraphModel dx="711" dy="638" grid="1" gridSize="10" guides="1" tooltips="1" connect="1" arrows="1" fold="1" page="1" pageScale="1" pageWidth="827" pageHeight="1169" math="0" shadow="0">
      <root>
        <mxCell id="0" />
        <mxCell id="1" parent="0" />
        <mxCell id="bUVeGB_KQTC8PTgQv7-W-1" value="1" style="rounded=0;whiteSpace=wrap;html=1;" vertex="1" parent="1">
          <mxGeometry x="80" y="340" width="20" height="60" as="geometry" />
        </mxCell>
        <mxCell id="bUVeGB_KQTC8PTgQv7-W-2" value="&lt;font style=&quot;font-size: 10px;&quot;&gt;5&lt;/font&gt;" style="text;html=1;align=center;verticalAlign=middle;whiteSpace=wrap;rounded=0;" vertex="1" parent="1">
          <mxGeometry x="80" y="320" width="20" height="20" as="geometry" />
        </mxCell>
        <mxCell id="bUVeGB_KQTC8PTgQv7-W-3" value="&lt;font style=&quot;font-size: 10px;&quot;&gt;4&lt;/font&gt;" style="text;html=1;align=center;verticalAlign=middle;whiteSpace=wrap;rounded=0;" vertex="1" parent="1">
          <mxGeometry x="100" y="320" width="20" height="20" as="geometry" />
        </mxCell>
        <mxCell id="bUVeGB_KQTC8PTgQv7-W-4" value="&lt;font style=&quot;font-size: 10px;&quot;&gt;3&lt;/font&gt;" style="text;html=1;align=center;verticalAlign=middle;whiteSpace=wrap;rounded=0;" vertex="1" parent="1">
          <mxGeometry x="120" y="320" width="20" height="20" as="geometry" />
        </mxCell>
        <mxCell id="bUVeGB_KQTC8PTgQv7-W-5" value="&lt;font style=&quot;font-size: 10px;&quot;&gt;2&lt;/font&gt;" style="text;html=1;align=center;verticalAlign=middle;whiteSpace=wrap;rounded=0;" vertex="1" parent="1">
          <mxGeometry x="140" y="320" width="20" height="20" as="geometry" />
        </mxCell>
        <mxCell id="bUVeGB_KQTC8PTgQv7-W-6" value="&lt;font style=&quot;font-size: 10px;&quot;&gt;1&lt;/font&gt;" style="text;html=1;align=center;verticalAlign=middle;whiteSpace=wrap;rounded=0;" vertex="1" parent="1">
          <mxGeometry x="160" y="320" width="20" height="20" as="geometry" />
        </mxCell>
        <mxCell id="bUVeGB_KQTC8PTgQv7-W-7" value="&lt;font style=&quot;font-size: 10px;&quot;&gt;0&lt;/font&gt;" style="text;html=1;align=center;verticalAlign=middle;whiteSpace=wrap;rounded=0;" vertex="1" parent="1">
          <mxGeometry x="180" y="320" width="20" height="20" as="geometry" />
        </mxCell>
        <mxCell id="bUVeGB_KQTC8PTgQv7-W-11" value="0" style="rounded=0;whiteSpace=wrap;html=1;" vertex="1" parent="1">
          <mxGeometry x="180" y="360" width="20" height="20" as="geometry" />
        </mxCell>
        <mxCell id="bUVeGB_KQTC8PTgQv7-W-12" value="1" style="rounded=0;whiteSpace=wrap;html=1;" vertex="1" parent="1">
          <mxGeometry x="180" y="380" width="20" height="20" as="geometry" />
        </mxCell>
        <mxCell id="bUVeGB_KQTC8PTgQv7-W-13" value="01" style="rounded=0;whiteSpace=wrap;html=1;" vertex="1" parent="1">
          <mxGeometry x="80" y="400" width="40" height="20" as="geometry" />
        </mxCell>
        <mxCell id="bUVeGB_KQTC8PTgQv7-W-16" value="001" style="rounded=0;whiteSpace=wrap;html=1;" vertex="1" parent="1">
          <mxGeometry x="80" y="420" width="60" height="40" as="geometry" />
        </mxCell>
        <mxCell id="bUVeGB_KQTC8PTgQv7-W-18" value="&lt;font face=&quot;Courier New&quot;&gt;[r&lt;sub&gt;16&lt;/sub&gt; + zext(r&lt;sub&gt;8&lt;/sub&gt;)]&lt;/font&gt;" style="text;html=1;align=left;verticalAlign=middle;whiteSpace=wrap;rounded=0;" vertex="1" parent="1">
          <mxGeometry x="220" y="340" width="120" height="20" as="geometry" />
        </mxCell>
        <mxCell id="bUVeGB_KQTC8PTgQv7-W-19" value="&lt;font face=&quot;Courier New&quot;&gt;[r&lt;sub&gt;16&lt;/sub&gt;++]&lt;/font&gt;" style="text;html=1;align=left;verticalAlign=middle;whiteSpace=wrap;rounded=0;" vertex="1" parent="1">
          <mxGeometry x="220" y="360" width="60" height="20" as="geometry" />
        </mxCell>
        <mxCell id="bUVeGB_KQTC8PTgQv7-W-20" value="&lt;font face=&quot;Courier New&quot;&gt;[--r&lt;sub&gt;16&lt;/sub&gt;]&lt;/font&gt;" style="text;html=1;align=left;verticalAlign=middle;whiteSpace=wrap;rounded=0;" vertex="1" parent="1">
          <mxGeometry x="220" y="380" width="60" height="20" as="geometry" />
        </mxCell>
        <mxCell id="bUVeGB_KQTC8PTgQv7-W-21" value="&lt;font face=&quot;Courier New&quot;&gt;r&lt;sub&gt;8&lt;/sub&gt;&lt;/font&gt;" style="text;html=1;align=left;verticalAlign=middle;whiteSpace=wrap;rounded=0;" vertex="1" parent="1">
          <mxGeometry x="220" y="440" width="30" height="20" as="geometry" />
        </mxCell>
        <mxCell id="bUVeGB_KQTC8PTgQv7-W-22" value="&lt;font face=&quot;Courier New&quot;&gt;[r&lt;sub&gt;16&lt;/sub&gt;&amp;nbsp;+ zext(imm&lt;sub&gt;2&lt;/sub&gt;)]&lt;/font&gt;" style="text;html=1;align=left;verticalAlign=middle;whiteSpace=wrap;rounded=0;" vertex="1" parent="1">
          <mxGeometry x="220" y="400" width="140" height="20" as="geometry" />
        </mxCell>
        <mxCell id="bUVeGB_KQTC8PTgQv7-W-25" value="0" style="rounded=0;whiteSpace=wrap;html=1;" vertex="1" parent="1">
          <mxGeometry x="180" y="460" width="20" height="20" as="geometry" />
        </mxCell>
        <mxCell id="bUVeGB_KQTC8PTgQv7-W-26" value="&lt;font face=&quot;Courier New&quot;&gt;r&lt;sub&gt;16&lt;/sub&gt;&lt;/font&gt;" style="text;html=1;align=left;verticalAlign=middle;whiteSpace=wrap;rounded=0;" vertex="1" parent="1">
          <mxGeometry x="220" y="460" width="60" height="20" as="geometry" />
        </mxCell>
        <mxCell id="bUVeGB_KQTC8PTgQv7-W-28" value="000111" style="rounded=0;whiteSpace=wrap;html=1;" vertex="1" parent="1">
          <mxGeometry x="80" y="500" width="120" height="20" as="geometry" />
        </mxCell>
        <mxCell id="bUVeGB_KQTC8PTgQv7-W-29" value="000101" style="rounded=0;whiteSpace=wrap;html=1;" vertex="1" parent="1">
          <mxGeometry x="80" y="520" width="120" height="20" as="geometry" />
        </mxCell>
        <mxCell id="bUVeGB_KQTC8PTgQv7-W-30" value="000011" style="rounded=0;whiteSpace=wrap;html=1;" vertex="1" parent="1">
          <mxGeometry x="80" y="540" width="120" height="20" as="geometry" />
        </mxCell>
        <mxCell id="bUVeGB_KQTC8PTgQv7-W-31" value="000001" style="rounded=0;whiteSpace=wrap;html=1;" vertex="1" parent="1">
          <mxGeometry x="80" y="560" width="120" height="20" as="geometry" />
        </mxCell>
        <mxCell id="bUVeGB_KQTC8PTgQv7-W-32" value="&lt;font face=&quot;Courier New&quot;&gt;sp&lt;/font&gt;" style="text;html=1;align=left;verticalAlign=middle;whiteSpace=wrap;rounded=0;" vertex="1" parent="1">
          <mxGeometry x="220" y="500" width="50" height="20" as="geometry" />
        </mxCell>
        <mxCell id="bUVeGB_KQTC8PTgQv7-W-33" value="&lt;font face=&quot;Courier New&quot;&gt;[push/pop/sp]&lt;/font&gt;" style="text;html=1;align=left;verticalAlign=middle;whiteSpace=wrap;rounded=0;" vertex="1" parent="1">
          <mxGeometry x="220" y="520" width="150" height="20" as="geometry" />
        </mxCell>
        <mxCell id="bUVeGB_KQTC8PTgQv7-W-34" value="&lt;span style=&quot;font-family: &amp;quot;Courier New&amp;quot;;&quot;&gt;[imm&lt;/span&gt;&lt;sub style=&quot;font-family: &amp;quot;Courier New&amp;quot;;&quot;&gt;16&lt;/sub&gt;&lt;span style=&quot;font-family: &amp;quot;Courier New&amp;quot;;&quot;&gt;]&lt;/span&gt;" style="text;html=1;align=left;verticalAlign=middle;whiteSpace=wrap;rounded=0;" vertex="1" parent="1">
          <mxGeometry x="220" y="540" width="150" height="20" as="geometry" />
        </mxCell>
        <mxCell id="bUVeGB_KQTC8PTgQv7-W-35" value="&lt;span style=&quot;font-family: &amp;quot;Courier New&amp;quot;;&quot;&gt;imm&lt;/span&gt;&lt;sub style=&quot;font-family: &amp;quot;Courier New&amp;quot;;&quot;&gt;16&lt;/sub&gt;" style="text;html=1;align=left;verticalAlign=middle;whiteSpace=wrap;rounded=0;" vertex="1" parent="1">
          <mxGeometry x="220" y="560" width="150" height="20" as="geometry" />
        </mxCell>
        <mxCell id="bUVeGB_KQTC8PTgQv7-W-36" value="Encoding of the dest/src field." style="text;html=1;align=center;verticalAlign=middle;whiteSpace=wrap;rounded=0;" vertex="1" parent="1">
          <mxGeometry x="80" y="585" width="280" height="30" as="geometry" />
        </mxCell>
        <mxCell id="bUVeGB_KQTC8PTgQv7-W-37" value="000010" style="rounded=0;whiteSpace=wrap;html=1;" vertex="1" parent="1">
          <mxGeometry x="80" y="480" width="120" height="20" as="geometry" />
        </mxCell>
        <mxCell id="bUVeGB_KQTC8PTgQv7-W-38" value="&lt;font face=&quot;Courier New&quot;&gt;flags&lt;/font&gt;" style="text;html=1;align=left;verticalAlign=middle;whiteSpace=wrap;rounded=0;" vertex="1" parent="1">
          <mxGeometry x="220" y="480" width="60" height="20" as="geometry" />
        </mxCell>
        <mxCell id="bUVeGB_KQTC8PTgQv7-W-39" value="dest/src:" style="text;html=1;align=left;verticalAlign=middle;whiteSpace=wrap;rounded=0;" vertex="1" parent="1">
          <mxGeometry x="220" y="320" width="80" height="20" as="geometry" />
        </mxCell>
        <mxCell id="bUVeGB_KQTC8PTgQv7-W-41" value="&lt;font face=&quot;Helvetica&quot;&gt;For non-overlapping&amp;nbsp; r&lt;sub style=&quot;&quot;&gt;16&lt;/sub&gt; and&amp;nbsp;r&lt;sub style=&quot;&quot;&gt;8&lt;/sub&gt;&lt;/font&gt;" style="text;html=1;align=left;verticalAlign=middle;whiteSpace=wrap;rounded=0;" vertex="1" parent="1">
          <mxGeometry x="360" y="340" width="170" height="20" as="geometry" />
        </mxCell>
        <mxCell id="bUVeGB_KQTC8PTgQv7-W-42" value="Both r&lt;sub&gt;16&lt;/sub&gt; fields have the same value" style="text;html=1;align=left;verticalAlign=middle;whiteSpace=wrap;rounded=0;" vertex="1" parent="1">
          <mxGeometry x="360" y="370" width="200" height="20" as="geometry" />
        </mxCell>
        <mxCell id="bUVeGB_KQTC8PTgQv7-W-43" value="&lt;font face=&quot;Courier New&quot;&gt;sext(r&lt;sub&gt;8&lt;/sub&gt;)/zext(r&lt;sub&gt;8&lt;/sub&gt;)&lt;/font&gt;" style="text;html=1;align=left;verticalAlign=middle;whiteSpace=wrap;rounded=0;" vertex="1" parent="1">
          <mxGeometry x="220" y="420" width="130" height="20" as="geometry" />
        </mxCell>
        <mxCell id="bUVeGB_KQTC8PTgQv7-W-44" value="For 16 bit operands, src only" style="text;html=1;align=left;verticalAlign=middle;whiteSpace=wrap;rounded=0;" vertex="1" parent="1">
          <mxGeometry x="360" y="420" width="160" height="20" as="geometry" />
        </mxCell>
        <mxCell id="bUVeGB_KQTC8PTgQv7-W-45" value="For 8 bit operands" style="text;html=1;align=left;verticalAlign=middle;whiteSpace=wrap;rounded=0;" vertex="1" parent="1">
          <mxGeometry x="360" y="440" width="120" height="20" as="geometry" />
        </mxCell>
        <mxCell id="bUVeGB_KQTC8PTgQv7-W-46" value="For 16 bit operands" style="text;html=1;align=left;verticalAlign=middle;whiteSpace=wrap;rounded=0;" vertex="1" parent="1">
          <mxGeometry x="360" y="460" width="120" height="20" as="geometry" />
        </mxCell>
        <mxCell id="bUVeGB_KQTC8PTgQv7-W-47" value="For 8 bit operands" style="text;html=1;align=left;verticalAlign=middle;whiteSpace=wrap;rounded=0;" vertex="1" parent="1">
          <mxGeometry x="360" y="480" width="120" height="20" as="geometry" />
        </mxCell>
        <mxCell id="bUVeGB_KQTC8PTgQv7-W-48" value="Low 8 bits &lt;font face=&quot;Courier New&quot;&gt;s&lt;/font&gt; for 8 bit operands" style="text;html=1;align=left;verticalAlign=middle;whiteSpace=wrap;rounded=0;" vertex="1" parent="1">
          <mxGeometry x="360" y="500" width="170" height="20" as="geometry" />
        </mxCell>
        <mxCell id="bUVeGB_KQTC8PTgQv7-W-49" value="Variant depends on instruction" style="text;html=1;align=left;verticalAlign=middle;whiteSpace=wrap;rounded=0;" vertex="1" parent="1">
          <mxGeometry x="360" y="520" width="170" height="20" as="geometry" />
        </mxCell>
        <mxCell id="bUVeGB_KQTC8PTgQv7-W-50" value="000" style="rounded=0;whiteSpace=wrap;html=1;" vertex="1" parent="1">
          <mxGeometry x="80" y="460" width="60" height="20" as="geometry" />
        </mxCell>
        <mxCell id="bUVeGB_KQTC8PTgQv7-W-8" value="r&lt;sub&gt;16&lt;/sub&gt;" style="rounded=0;whiteSpace=wrap;html=1;fillColor=#dae8fc;strokeColor=#6c8ebf;" vertex="1" parent="1">
          <mxGeometry x="100" y="340" width="40" height="60" as="geometry" />
        </mxCell>
        <mxCell id="bUVeGB_KQTC8PTgQv7-W-9" value="r&lt;span style=&quot;font-size: 10px;&quot;&gt;&lt;sub&gt;8&lt;/sub&gt;&lt;/span&gt;" style="rounded=0;whiteSpace=wrap;html=1;fillColor=#dae8fc;strokeColor=#6c8ebf;" vertex="1" parent="1">
          <mxGeometry x="140" y="340" width="60" height="20" as="geometry" />
        </mxCell>
        <mxCell id="bUVeGB_KQTC8PTgQv7-W-10" value="r&lt;span style=&quot;font-size: 10px;&quot;&gt;&lt;sub&gt;16&lt;/sub&gt;&lt;/span&gt;" style="rounded=0;whiteSpace=wrap;html=1;fillColor=#dae8fc;strokeColor=#6c8ebf;" vertex="1" parent="1">
          <mxGeometry x="140" y="360" width="40" height="40" as="geometry" />
        </mxCell>
        <mxCell id="bUVeGB_KQTC8PTgQv7-W-14" value="r&lt;span style=&quot;font-size: 10px;&quot;&gt;&lt;sub&gt;16&lt;/sub&gt;&lt;/span&gt;" style="rounded=0;whiteSpace=wrap;html=1;fillColor=#dae8fc;strokeColor=#6c8ebf;" vertex="1" parent="1">
          <mxGeometry x="120" y="400" width="40" height="20" as="geometry" />
        </mxCell>
        <mxCell id="bUVeGB_KQTC8PTgQv7-W-15" value="imm&lt;sub&gt;2&lt;/sub&gt;" style="rounded=0;whiteSpace=wrap;html=1;fillColor=#dae8fc;strokeColor=#6c8ebf;" vertex="1" parent="1">
          <mxGeometry x="160" y="400" width="40" height="20" as="geometry" />
        </mxCell>
        <mxCell id="bUVeGB_KQTC8PTgQv7-W-17" value="r&lt;span style=&quot;font-size: 10px;&quot;&gt;&lt;sub&gt;8&lt;/sub&gt;&lt;/span&gt;" style="rounded=0;whiteSpace=wrap;html=1;fillColor=#dae8fc;strokeColor=#6c8ebf;" vertex="1" parent="1">
          <mxGeometry x="140" y="420" width="60" height="40" as="geometry" />
        </mxCell>
        <mxCell id="bUVeGB_KQTC8PTgQv7-W-24" value="r&lt;span style=&quot;font-size: 10px;&quot;&gt;&lt;sub&gt;16&lt;/sub&gt;&lt;/span&gt;" style="rounded=0;whiteSpace=wrap;html=1;fillColor=#dae8fc;strokeColor=#6c8ebf;" vertex="1" parent="1">
          <mxGeometry x="140" y="460" width="40" height="20" as="geometry" />
        </mxCell>
      </root>
    </mxGraphModel>
  </diagram>
</mxfile>
